<svg xmlns="http://www.w3.org/2000/svg" xmlns:xlink="http://www.w3.org/1999/xlink" id="Layer_1" x="0px" y="0px" viewBox="0 0 800 205.31" style="enable-background:new 0 0 800 205.31;" xml:space="preserve"><style type="text/css">	.st0{fill:#FFFFFF;}	.st1{fill:#060E32;}	.st2{fill:#FF9400;}</style><g>	<g>		<path class="st1" d="M687.04,88.83c-26.12,0-33.79,14.28-33.79,37.22c0,20,5.73,28.67,10.25,32.35   c4.52,3.68,11.62,6.62,22.96,6.62c12.02,0,20.43-2.21,25.22-6.62c4.8-4.41,7.2-10.54,7.2-18.39h-18.03c0,2.81-0.99,4.9-2.98,6.25   c-1.99,1.36-5.79,2.03-11.41,2.03c-5.04,0-8.67-0.94-10.9-2.83c-2.23-1.89-3.35-5.01-3.35-9.37v-3.06h46.67   c0.94-5.89,1.26-11.9,0.5-17.82C717.2,98.46,708.82,88.83,687.04,88.83z M700.85,117.62h-28.64v-1.6   c0-7.17,4.75-10.76,14.25-10.76c9.6,0,14.39,3.59,14.39,10.76V117.62z"></path>		<path class="st1" d="M256.81,88.83c-26.12,0-33.79,14.28-33.79,37.22c0,20,5.73,28.67,10.25,32.35   c4.52,3.68,11.62,6.62,22.96,6.62c12.01,0,20.42-2.21,25.22-6.62c4.8-4.41,7.2-10.54,7.2-18.39h-18.03c0,2.81-1,4.9-2.98,6.25   c-1.99,1.36-5.79,2.03-11.41,2.03c-5.05,0-8.68-0.94-10.9-2.83c-2.23-1.89-3.35-5.01-3.35-9.37v-3.06h46.67   c0.94-5.89,1.26-11.9,0.5-17.82C286.97,98.46,278.6,88.83,256.81,88.83z M270.62,117.62h-28.64v-1.6   c0-7.17,4.75-10.76,14.25-10.76c9.59,0,14.39,3.59,14.39,10.76V117.62z"></path>		<path class="st1" d="M375.59,88.83c-9.79,0-16.92,3.11-21.37,9.31c-4.27-6.2-11.44-9.31-21.52-9.31   c-10.17,0-17.91,2.53-23.19,7.56c-5.28,5.04-7.92,12.31-7.92,21.8v45.07h19.05V118.2c0-4.07,0.82-7,2.47-8.8   c1.65-1.79,4.84-2.69,9.59-2.69c4.85,0,8.07,0.89,9.67,2.69c1.6,1.8,2.4,4.72,2.4,8.8v45.07h18.47V118.2c0-4.07,0.82-7,2.47-8.8   c1.65-1.79,4.94-2.69,9.89-2.69c4.74,0,7.9,0.89,9.45,2.69c1.55,1.8,2.33,4.72,2.33,8.8v45.07h19.05V118.2   c0-9.88-2.5-17.25-7.49-22.1C393.93,91.26,386.15,88.83,375.59,88.83z"></path>		<path class="st1" d="M441.08,144.73c-1.02-1.41-1.53-3.95-1.53-7.64V61.5h-18.9v79.81c0,7.95,1.96,13.83,5.88,17.67   c3.93,3.83,9.19,5.74,15.78,5.74c3.58,0,6.69-0.48,9.31-1.45v-17.3c-1.55,0.58-3.44,0.87-5.67,0.87   C443.71,146.84,442.09,146.14,441.08,144.73z"></path>		<path class="st1" d="M471.24,58.54c-3.1,0-5.77,1.12-7.99,3.35c-2.23,2.23-3.35,4.89-3.35,7.99c0,3.1,1.11,5.77,3.35,8   c2.23,2.23,4.89,3.34,7.99,3.34c3.1,0,5.76-1.11,8-3.34c2.23-2.23,3.34-4.89,3.34-8c0-3.1-1.11-5.77-3.34-7.99   C477,59.66,474.34,58.54,471.24,58.54z"></path>		<rect x="461.79" y="90.58" class="st1" width="18.9" height="72.69"></rect>		<path class="st1" d="M578.09,137.82c0,4.07-0.94,7.33-2.83,9.13c-1.89,1.79-8.38,1.79-10.18,0c-1.79-1.79-2.69-5.06-2.69-9.13   V118.2c0-9.88-2.64-17.25-7.92-22.1c-5.28-4.85-13.6-7.27-24.94-7.27c-10.95,0-19.21,2.5-24.78,7.49   c-5.58,4.99-8.36,12.28-8.36,21.88v45.07h19.05V118.2c0-4.07,0.94-7,2.83-8.79c1.89-1.79,5.64-2.69,11.26-2.69   c5.62,0,9.33,0.9,11.12,2.69c1.79,1.79,2.69,4.72,2.69,8.79v19.62c0,9.88,2.17,17.82,7.92,22.1c9.04,6.72,29.22,6.99,37.37-0.22   c5.6-4.96,8.36-12.28,8.36-21.88V61.5h-18.9V137.82z"></path>		<path class="st1" d="M622.31,124.89c0-1.16,0.92-2.76,2.76-4.8l24.28-29.51h-23.56l-16.86,20.79c-2.13,2.62-3.61,4.82-4.44,6.62   c-0.82,1.79-1.23,3.9-1.23,6.32c0,4.85,1.89,9.59,5.67,14.24l19.77,24.72h23.55l-27.33-33.73   C623.18,127.5,622.31,125.95,622.31,124.89z"></path>		<path class="st1" d="M781.04,61.5v32.92c-4.42-3.79-10.62-5.72-18.67-5.72c-10.39,0-18.29,2.53-23.69,7.59   c-5.4,5.06-8.09,12.35-8.09,21.88v15c0,21.23,11.58,31.84,34.74,31.84c10.37,0,18.73-2.59,25.08-7.78   c6.34-5.18,9.52-13.21,9.52-24.06V61.5H781.04z M781.04,132.74c0,5.04-1.09,8.7-3.27,10.97c-2.18,2.28-6.37,3.42-12.58,3.42   c-6.3,0-10.47-1.11-12.5-3.34c-2.03-2.23-3.06-5.91-3.06-11.05v-11.63c0-5.04,1.04-8.7,3.13-10.98c2.08-2.28,6.23-3.42,12.43-3.42   s10.39,1.14,12.58,3.42c2.18,2.28,3.27,5.94,3.27,10.98V132.74z"></path>	</g>	<path class="st2" d="M63.61,187.04v-58l37.53,19.8v42.85c-3.07,0.37-6.19,0.58-9.36,0.58C81.86,192.27,72.37,190.4,63.61,187.04   M101.14,134.09l-37.53-19.8v-6.88V88.94l37.53-19.8V134.09z M50.57,129.04v51.55c-13.52-8.34-24.33-20.65-30.81-35.29  L50.57,129.04z M170.52,80.79v32.73c0,2.91-0.17,5.78-0.48,8.6c-1.39,12.75-5.84,24.58-12.59,34.77c-0.66,1-1.35,1.99-2.06,2.96  c-3.77,5.16-8.15,9.86-13.04,13.96c-1.99,1.68-4.07,3.26-6.22,4.73c-6.11,4.18-12.84,7.51-20.02,9.85  c-0.64,0.21-1.29,0.41-1.93,0.6v-48.03V69.14L142.35,84v46.37l13.04,6.88V76.14l-41.21-21.74v-6.88V31.26v-1.65l28.17-14.86  l28.17,14.86V80.79z M142.35,0l-41.21,21.74v0.49v3.58v2.97v6.62v12.11v2.09v4.79L50.57,81.07v26.34v6.88l-35.13,18.53  c-1.56-6.18-2.4-12.64-2.4-19.3c0-42.18,33.34-76.71,75.06-78.65v-6.52v-2.54v-3.98C39.19,23.78,0,64.15,0,113.53  c0,50.61,41.17,91.78,91.78,91.78c50.61,0,91.78-41.17,91.78-91.78V21.74L142.35,0z"></path></g></svg>